<svg width="71" height="71" viewBox="0 0 71 71" fill="none" xmlns="http://www.w3.org/2000/svg">
<g clip-path="url(#clip0_7_51)">
<path d="M71 35.5004C71 37.3662 69.9375 39.1249 69.6572 40.9118C69.3689 42.7457 69.8323 44.7459 69.2719 46.4727C68.7012 48.2315 67.1451 49.5765 66.3168 51.2C65.4783 52.842 65.2988 54.8897 64.2225 56.3679C63.1415 57.8545 61.2465 58.6549 59.9497 59.9504C58.6548 61.248 57.8552 63.1415 56.368 64.2221C54.8891 65.2988 52.8415 65.4785 51.2006 66.3164C49.5764 67.1457 48.2317 68.7004 46.4734 69.2715C44.7456 69.833 42.746 69.3685 40.9114 69.657C39.1244 69.9384 37.3654 71 35.4994 71C33.6346 71 31.8756 69.9384 30.0886 69.657C28.2541 69.3685 26.2538 69.833 24.5266 69.2715C22.7683 68.7004 21.4232 67.1458 19.7994 66.3159C18.1585 65.4786 16.1117 65.2984 14.632 64.2221C13.1454 63.1412 12.3458 61.2468 11.0492 59.9504C9.75349 58.6536 7.85867 57.8545 6.77754 56.367C5.70123 54.8897 5.5217 52.8412 4.68328 51.2C3.8547 49.5765 2.29879 48.2315 1.7281 46.4727C1.16769 44.7459 1.63109 42.7457 1.34237 40.9118C1.06246 39.1249 0 37.3662 0 35.5004C0 33.6354 1.06246 31.8754 1.34237 30.089C1.63109 28.2551 1.16769 26.2545 1.7281 24.5273C2.29879 22.769 3.8547 21.4235 4.68328 19.8C5.5217 18.1593 5.70123 16.1116 6.77754 14.633C7.85867 13.1468 9.75349 12.3464 11.0503 11.0504C12.3458 9.75365 13.1454 7.86052 14.632 6.77793C16.1117 5.70159 18.1589 5.52188 19.7994 4.68325C21.4232 3.85511 22.7683 2.29963 24.5266 1.72809C26.2538 1.16747 28.2541 1.63194 30.0886 1.34382C31.8756 1.06332 33.6346 0 35.4994 0C37.3654 0 39.1244 1.06332 40.9114 1.34382C42.746 1.63194 44.7456 1.16747 46.4734 1.72809C48.2317 2.29963 49.5764 3.85511 51.2006 4.68325C52.8415 5.52188 54.8898 5.70159 56.368 6.77793C57.8552 7.86052 58.6548 9.75365 59.9497 11.0504C61.248 12.3464 63.1415 13.1468 64.2225 14.633C65.2988 16.1116 65.4783 18.1597 66.3168 19.8C67.1451 21.4235 68.7012 22.769 69.2719 24.5273C69.8323 26.2545 69.3689 28.2551 69.6572 30.089C69.9375 31.8754 71 33.6355 71 35.5004Z" fill="#333333"/>
<path d="M67.9479 37.1677C68.8686 19.2473 55.0876 3.97347 37.1671 3.05273C19.2465 2.13198 3.97268 15.9129 3.05193 33.8334C2.13118 51.7538 15.9122 67.0275 33.8327 67.9483C51.7533 68.869 67.0271 55.0881 67.9479 37.1677Z" fill="#F9F9F9"/>
<path d="M35.4994 66.0975C29.4479 66.0972 23.5323 64.3024 18.5009 60.9402C13.4694 57.5779 9.5479 52.7992 7.23231 47.2083C4.91672 41.6174 4.31103 35.4654 5.49182 29.5302C6.67261 23.595 9.58685 18.1433 13.866 13.8644C18.1452 9.58547 23.5971 6.67154 29.5324 5.49107C35.4676 4.3106 41.6196 4.91662 47.2105 7.23249C52.8013 9.54836 57.5799 13.4701 60.9419 18.5017C64.3039 23.5333 66.0983 29.4489 66.0983 35.5004C66.0892 43.6127 62.8624 51.3902 57.1259 57.1263C51.3894 62.8625 43.6118 66.0888 35.4994 66.0975ZM35.4994 5.36434C29.5389 5.36464 23.7124 7.13239 18.7566 10.4441C13.8008 13.7557 9.93829 18.4626 7.65755 23.9694C5.3768 29.4762 4.78024 35.5357 5.9433 41.3815C7.10635 47.2274 9.97679 52.5971 14.1916 56.8116C18.4065 61.0261 23.7764 63.8962 29.6224 65.0588C35.4683 66.2214 41.5278 65.6245 47.0345 63.3433C52.5412 61.0622 57.2478 57.1994 60.5591 52.2434C63.8705 47.2874 65.6378 41.4608 65.6377 35.5004C65.6289 27.5102 62.4507 19.8497 56.8005 14.2C51.1504 8.55021 43.4897 5.37259 35.4994 5.36434Z" fill="#333333"/>
<path d="M10.4969 33.6785L11.0891 34.8783L12.4127 35.0692L11.455 36.0032L11.6817 37.3221L10.4969 36.6999L9.31307 37.3221L9.5397 36.0032L8.58203 35.0692L9.90522 34.8783L10.4969 33.6785Z" fill="#333333"/>
<path d="M60.5033 33.6785L61.0954 34.8783L62.4182 35.0692L61.461 36.0032L61.6876 37.3221L60.5033 36.6999L59.3194 37.3221L59.5456 36.0032L58.5875 35.0692L59.9107 34.8783L60.5033 33.6785Z" fill="#333333"/>
<path d="M26.0071 20.9997L27.3595 21.7166L27.0959 20.2081L28.1963 19.1416L26.6801 18.9253L26.0071 17.5514L25.3328 18.9253L23.8148 19.1416L24.9157 20.2081L24.6529 21.7166L26.0071 20.9997Z" fill="#333333"/>
<path d="M46.543 21.001L47.8967 21.7166L47.6339 20.2076L48.7339 19.1416L47.2177 18.9262L46.543 17.5514L45.8691 18.9262L44.3546 19.1416L45.4537 20.2076L45.1901 21.7166L46.543 21.001Z" fill="#333333"/>
<path d="M25.8731 33.4721C25.9388 33.5345 25.999 33.6022 26.0533 33.6746C26.6975 34.454 27.0195 35.5923 27.0192 37.0895C27.0192 38.5879 26.6972 39.7268 26.0533 40.5062C25.3787 41.3302 24.3448 41.7423 22.9518 41.7426H19.761V40.9551H22.9518C24.076 40.9551 24.9073 40.6333 25.4459 39.9897C25.9554 39.3749 26.2104 38.4082 26.2108 37.0895C26.2108 35.7869 25.9558 34.8132 25.4459 34.1684C25.1803 33.8612 24.8508 33.6157 24.4804 33.4491C25.6342 32.9854 26.211 31.7796 26.2108 29.8317C26.2108 28.5139 25.9486 27.5438 25.4242 26.9214C24.8997 26.3004 24.0756 25.9895 22.9518 25.9888H19.761V25.1799H22.9518C24.3452 25.1799 25.379 25.5993 26.0533 26.4381C26.6975 27.2179 27.0194 28.3491 27.0192 29.8317C27.0192 31.33 26.6972 32.4685 26.0533 33.2471C26.0008 33.3278 25.9404 33.4032 25.8731 33.4721ZM19.761 40.4159V26.5057H20.5476V40.4159H19.761ZM25.6934 29.8317C25.6934 31.0155 25.4763 31.8731 25.0421 32.4047C24.607 32.9367 23.9102 33.2027 22.9518 33.2026H21.0862V26.5057H22.9518C23.9261 26.5057 24.6228 26.7676 25.0421 27.2914C25.4763 27.8172 25.6934 28.6639 25.6934 29.8317H25.6934ZM21.0862 33.7191H22.9518C23.911 33.7191 24.6077 33.9852 25.0421 34.5174C25.4763 35.049 25.6934 35.9064 25.6934 37.0895C25.6934 38.2444 25.4763 39.0984 25.0421 39.6516C24.6225 40.1615 23.9258 40.4162 22.9518 40.4159H21.0862V33.7191ZM21.8727 32.3937H22.9518C23.3039 32.4157 23.6566 32.3618 23.9861 32.2358C24.1559 32.1639 24.3033 32.0476 24.4126 31.899C24.7278 31.5244 24.885 30.8353 24.8844 29.8317C24.8981 29.3667 24.849 28.9019 24.7385 28.45C24.6713 28.1681 24.5319 27.9085 24.334 27.6967C24.1635 27.5333 23.9485 27.4239 23.7161 27.3821C23.464 27.336 23.2081 27.3133 22.9518 27.3145H21.8727V32.3937ZM21.8727 39.6294H22.9518C23.2081 39.6305 23.4639 39.608 23.7161 39.5622C23.9485 39.5202 24.1634 39.4108 24.334 39.2477C24.5331 39.0326 24.6725 38.7693 24.7385 38.4838C24.8484 38.0275 24.8974 37.5587 24.8844 37.0895C24.8994 36.6164 24.8467 36.1435 24.7278 35.6853C24.6523 35.401 24.5094 35.1391 24.3111 34.9218C24.1472 34.7536 23.9355 34.6399 23.7048 34.5959C23.4565 34.5494 23.2044 34.5269 22.9518 34.5288H21.8727V39.6294Z" fill="#333333"/>
<path d="M28.9974 40.9551H35.0646V41.7425H28.2108V25.1799H35.0646V25.9887H28.9974V40.9551ZM35.0646 27.3145H30.3231V32.3937H35.0646V33.2025H29.5362V26.5056H35.0646V27.3145ZM35.0646 34.5287H30.3231V39.6293H35.0646V40.4159H29.5362V33.719H35.0646V34.5287Z" fill="#333333"/>
<path d="M37.9185 33.247C37.4741 32.8176 37.1245 32.2999 36.8923 31.7272C36.6601 31.1545 36.5504 30.5396 36.5702 29.9219C36.5625 29.267 36.6573 28.6149 36.851 27.9893C37.0182 27.4421 37.2934 26.9339 37.6602 26.4947C38.0063 26.0869 38.4354 25.7575 38.9188 25.5285C39.4776 25.2855 40.0824 25.1667 40.6915 25.1803C41.3006 25.1939 41.8996 25.3394 42.4469 25.607C42.8509 25.8351 43.2122 26.1317 43.5147 26.4834C44.1587 27.3069 44.4804 28.4531 44.4799 29.9219V30.9776H43.672V29.9219C43.672 28.6033 43.4099 27.6293 42.8858 26.9999C42.581 26.6681 42.208 26.4061 41.7925 26.2317C41.377 26.0574 40.9288 25.9749 40.4784 25.9899C40.0281 26.0049 39.5863 26.117 39.1833 26.3186C38.7803 26.5202 38.4256 26.8065 38.1435 27.1578C37.5868 27.9687 37.3105 28.9394 37.3568 29.9219C37.3406 30.4863 37.4519 31.0471 37.6823 31.5626C37.8758 31.9774 38.1422 32.354 38.4688 32.6746C38.7519 32.9489 39.074 33.1799 39.4246 33.36C39.7534 33.5242 40.0231 33.6513 40.2336 33.7413L40.6149 33.9223C40.8094 33.9958 41.0498 34.1016 41.3343 34.2364C41.6386 34.3847 41.919 34.5778 42.166 34.8092C42.4533 35.0794 42.6892 35.3994 42.8623 35.7537C43.0695 36.192 43.1698 36.6733 43.155 37.158C43.2082 38.0158 42.962 38.8656 42.4583 39.5621C42.2099 39.826 41.9112 40.0376 41.5798 40.1842C41.2483 40.3308 40.8909 40.4096 40.5285 40.4158C40.1662 40.4221 39.8062 40.3557 39.4699 40.2207C39.1336 40.0856 38.8278 39.8845 38.5704 39.6293C38.1207 39.075 37.8959 38.2135 37.896 37.045V35.9888H38.6821V37.045C38.6821 38.0192 38.8546 38.7158 39.1995 39.1346C39.3105 39.2701 39.4485 39.3811 39.6045 39.4605C39.8926 39.5927 40.2092 39.6508 40.5255 39.6293C40.8666 39.6468 41.2045 39.5564 41.4914 39.3711C41.7229 39.2086 41.9119 38.9927 42.0421 38.7416C42.171 38.4884 42.2547 38.2147 42.2897 37.9328C42.3243 37.6759 42.3428 37.4171 42.3451 37.158C42.3551 36.8194 42.2941 36.4825 42.166 36.169C42.0548 35.912 41.8945 35.6793 41.6942 35.4837C41.4998 35.2968 41.2805 35.1378 41.0424 35.0112C40.8026 34.8839 40.5629 34.7679 40.3233 34.6631L39.9187 34.4829C39.6785 34.3792 39.3751 34.2332 39.0086 34.0449C38.6081 33.8339 38.2408 33.565 37.9185 33.247ZM43.0872 33.8534C43.5443 34.2709 43.9055 34.7825 44.1459 35.353C44.3863 35.9234 44.5003 36.5392 44.4799 37.158C44.5236 38.2891 44.1921 39.4029 43.5369 40.326C43.1855 40.7865 42.7284 41.1556 42.2043 41.4022C41.6801 41.6487 41.1043 41.7655 40.5255 41.7425C39.2069 41.7425 38.2104 41.3154 37.5361 40.4613C36.8917 39.6672 36.5697 38.5284 36.5702 37.045V35.9888H37.3568V37.045C37.3568 38.3338 37.619 39.3077 38.1435 39.9666C38.4372 40.3042 38.8051 40.5692 39.2184 40.7407C39.6317 40.9122 40.0791 40.9856 40.5255 40.9551C40.9902 40.9615 41.4507 40.8656 41.8741 40.6742C42.2791 40.4862 42.6278 40.1957 42.8858 39.8313C43.1519 39.4778 43.3497 39.0778 43.4691 38.6517C43.6083 38.1662 43.6766 37.663 43.672 37.158C43.6895 36.5958 43.5738 36.0374 43.3341 35.5286C43.1355 35.1207 42.8656 34.7517 42.537 34.4388C42.2566 34.1728 41.9386 33.9493 41.5932 33.7757C41.2707 33.6183 41.0124 33.5028 40.8182 33.4272L40.4585 33.2697C40.2475 33.1807 39.9974 33.0601 39.7054 32.9102C39.3952 32.7474 39.1112 32.539 38.8627 32.2921C38.5799 32.0123 38.348 31.6853 38.1776 31.3258C37.9774 30.8856 37.8811 30.4053 37.896 29.9219C37.8974 29.521 37.9426 29.1215 38.031 28.7305C38.1151 28.3401 38.267 27.9674 38.4799 27.6294C38.6891 27.3014 38.9698 27.0249 39.3009 26.8206C39.671 26.6017 40.0957 26.4924 40.5255 26.5056C40.8918 26.4792 41.2592 26.5385 41.5986 26.6789C41.9379 26.8193 42.2398 27.0369 42.4804 27.3145C42.9299 27.8839 43.1548 28.7531 43.155 29.9219V30.9776H42.3451V29.9219C42.3638 29.4129 42.2995 28.9043 42.1549 28.416C42.0675 28.1183 41.9006 27.8501 41.6719 27.6403C41.4986 27.4933 41.2887 27.3961 41.0645 27.359C40.886 27.3319 40.706 27.3171 40.5255 27.3145C40.1611 27.2915 39.8011 27.4037 39.5142 27.6294C39.2763 27.8358 39.0883 28.0934 38.9641 28.3828C38.8398 28.6601 38.76 28.9553 38.7277 29.2575C38.6975 29.5507 38.6823 29.7721 38.6821 29.9219C38.6734 30.2639 38.7348 30.6041 38.8627 30.9214C38.975 31.1876 39.1346 31.4312 39.3339 31.6403C39.5293 31.8432 39.7528 32.0171 39.9974 32.1568C40.2458 32.3005 40.505 32.4246 40.7726 32.5281L41.1321 32.6852C41.3418 32.7754 41.6299 32.906 41.9976 33.0791C42.4003 33.2766 42.7682 33.5381 43.0872 33.8534Z" fill="#333333"/>
<path d="M49.6936 25.9887H45.2672V25.1799H54.638V25.9887H49.6936H49.6936ZM49.6936 41.7425H48.8854V27.3145H45.2672V26.5056H49.6936L49.6936 41.7425ZM50.2107 26.5056H54.6381V27.3145H51.0206V41.7425H50.2107V26.5056H50.2107Z" fill="#333333"/>
<path d="M43.2722 12.944C43.1198 12.9441 42.9736 13.0047 42.8659 13.1125C42.7581 13.2203 42.6976 13.3665 42.6975 13.5189C42.6973 13.5981 42.7137 13.6765 42.7456 13.7491C42.7775 13.8216 42.8243 13.8867 42.8829 13.9401L38.9671 18.179L39.6873 12.469C39.8332 12.4854 39.98 12.4457 40.0977 12.358C40.2155 12.2703 40.2956 12.1411 40.3216 11.9966C40.3477 11.8521 40.3179 11.703 40.2382 11.5797C40.1586 11.4563 40.035 11.3678 39.8925 11.3322C39.7501 11.2965 39.5994 11.3164 39.471 11.3876C39.3426 11.4589 39.2461 11.5763 39.201 11.7161C39.1559 11.8559 39.1657 12.0075 39.2282 12.1404C39.2908 12.2733 39.4015 12.3774 39.538 12.4316L37.374 17.9392L35.9767 10.5012C36.1177 10.4747 36.2437 10.3965 36.3301 10.2819C36.4165 10.1674 36.457 10.0247 36.4437 9.88183C36.4304 9.73896 36.3642 9.60621 36.2581 9.50958C36.1521 9.41294 36.0138 9.35937 35.8703 9.35938C35.7268 9.35938 35.5885 9.41294 35.4824 9.50958C35.3764 9.60621 35.3102 9.73896 35.2969 9.88183C35.2836 10.0247 35.3241 10.1674 35.4105 10.2819C35.4969 10.3965 35.6229 10.4747 35.7639 10.5012L34.3661 17.9392L32.2019 12.4317C32.3345 12.3788 32.4426 12.2784 32.5051 12.1501C32.5675 12.0217 32.5798 11.8747 32.5396 11.7378C32.4994 11.6009 32.4095 11.4839 32.2876 11.4097C32.1656 11.3355 32.0204 11.3095 31.8803 11.3368C31.7402 11.364 31.6153 11.4426 31.5301 11.557C31.4449 11.6715 31.4054 11.8137 31.4195 11.9557C31.4335 12.0977 31.5 12.2294 31.606 12.325C31.712 12.4205 31.8499 12.4731 31.9926 12.4724C32.0132 12.4724 32.0346 12.4711 32.0533 12.4695L32.7735 18.1799L28.8514 13.933C28.9558 13.8313 29.0171 13.6933 29.0225 13.5477C29.028 13.4021 28.9772 13.26 28.8807 13.1508C28.7842 13.0416 28.6494 12.9737 28.5042 12.9612C28.359 12.9487 28.2146 12.9926 28.1008 13.0837C27.9871 13.1748 27.9128 13.3062 27.8933 13.4506C27.8739 13.5951 27.9107 13.7414 27.9962 13.8594C28.0817 13.9774 28.2094 14.058 28.3527 14.0844C28.496 14.1109 28.644 14.0811 28.766 14.0014L32.3305 19.6245H35.87V19.6232H39.4097L42.9704 14.0081C43.0461 14.055 43.1316 14.0837 43.2203 14.0919C43.3089 14.1001 43.3983 14.0876 43.4813 14.0554C43.5643 14.0233 43.6387 13.9722 43.6987 13.9064C43.7586 13.8406 43.8024 13.7617 43.8267 13.6761C43.851 13.5904 43.8551 13.5003 43.8386 13.4128C43.8222 13.3253 43.7856 13.2428 43.7319 13.1719C43.6781 13.1009 43.6086 13.0434 43.5288 13.0038C43.4491 12.9643 43.3612 12.9438 43.2722 12.944V12.944Z" fill="#333333"/>
<path d="M39.7083 19.9579H32.0193V20.4605H39.7083V19.9579Z" fill="#333333"/>
<path d="M39.5189 20.7121H32.2081V21.4306H39.5189V20.7121Z" fill="#333333"/>
<path d="M37.4204 58.3827C37.4204 58.691 37.329 58.9924 37.1578 59.2487C36.9865 59.5051 36.7431 59.7049 36.4583 59.8229C36.1735 59.9409 35.8601 59.9718 35.5577 59.9117C35.2553 59.8516 34.9776 59.7032 34.7595 59.4852C34.5415 59.2673 34.393 58.9896 34.3328 58.6873C34.2725 58.3849 34.3033 58.0715 34.4212 57.7867C34.5391 57.5018 34.7388 57.2583 34.9951 57.0869C35.2513 56.9156 35.5527 56.824 35.8609 56.8239C36.0657 56.8237 36.2686 56.8638 36.4579 56.942C36.6472 57.0203 36.8191 57.1351 36.964 57.2799C37.1088 57.4247 37.2237 57.5966 37.302 57.7859C37.3804 57.9751 37.4206 58.1779 37.4204 58.3827Z" fill="#333333"/>
<path d="M22.0294 58.3077L32.9387 59.283V57.6368L22.0294 58.3077Z" fill="#333333"/>
<path d="M49.6959 58.3077L38.7849 59.283V57.6368L49.6959 58.3077Z" fill="#333333"/>
<path d="M24.7324 47.838V47.1749C24.7775 46.5274 24.6089 45.883 24.2524 45.3406C24.0704 45.1296 23.8419 44.9638 23.5849 44.8561C23.3279 44.7484 23.0495 44.7018 22.7715 44.7199C22.4934 44.7019 22.215 44.7486 21.958 44.8563C21.701 44.964 21.4725 45.1297 21.2903 45.3406C20.9296 45.8816 20.7561 46.5259 20.7962 47.1749V51.6473C20.7833 52.0709 20.8454 52.4935 20.9799 52.8954C21.0762 53.1787 21.2352 53.4367 21.4451 53.65C21.6234 53.823 21.8417 53.9492 22.0806 54.0175C22.3054 54.0816 22.5378 54.1146 22.7715 54.1157C23.0029 54.1149 23.2331 54.0818 23.4553 54.0175C23.6916 53.9483 23.9073 53.8221 24.0833 53.65C24.2934 53.4366 24.4528 53.1787 24.5497 52.8954C24.6833 52.4933 24.7451 52.0708 24.7324 51.6473V50.9691H25.2399V51.6473C25.286 52.4054 25.0723 53.1566 24.6339 53.7768C24.4449 53.9976 24.2209 54.1859 23.9708 54.3341C23.6045 54.5359 23.1891 54.6312 22.7715 54.6092C22.5433 54.6124 22.3157 54.5865 22.0941 54.5319C21.9111 54.4859 21.7338 54.4196 21.5656 54.3341C21.4222 54.2632 21.2892 54.1731 21.1702 54.0662C21.071 53.9775 20.9794 53.8807 20.8962 53.7768C20.4604 53.1559 20.251 52.4042 20.3028 51.6473V47.1749C20.254 46.418 20.4632 45.6669 20.8962 45.0441C20.9797 44.9407 21.0713 44.8441 21.1702 44.7552C21.2893 44.6484 21.4223 44.5583 21.5656 44.4873C21.734 44.4022 21.9112 44.3357 22.0941 44.289C22.3158 44.2354 22.5434 44.2097 22.7715 44.2126C23.189 44.1905 23.6045 44.2856 23.9708 44.4873C24.2208 44.6354 24.4447 44.8235 24.6339 45.0441C25.0723 45.6648 25.2861 46.4164 25.2399 47.1749V47.838H24.7324ZM22.7715 45.0441C23.8623 45.0441 24.4078 45.7544 24.408 47.1749V47.838H23.9007V47.1749C23.9125 46.8577 23.8716 46.5406 23.7798 46.2367C23.7245 46.0538 23.6226 45.8884 23.4841 45.7567C23.3785 45.6642 23.2489 45.6033 23.1103 45.5808C22.9982 45.5634 22.8849 45.5539 22.7715 45.5522C22.6559 45.5533 22.5405 45.5628 22.4262 45.5808C22.2881 45.6051 22.1589 45.6658 22.0521 45.7567C21.9095 45.8865 21.8046 46.0523 21.7484 46.2367C21.6574 46.5408 21.6172 46.8578 21.6294 47.1749V51.6473C21.5883 52.1084 21.7024 52.57 21.9536 52.9588C22.019 53.0514 22.106 53.1266 22.2071 53.178C22.3834 53.2598 22.5774 53.2962 22.7715 53.2838C22.9631 53.2969 23.1548 53.2604 23.3283 53.178C23.4286 53.1221 23.5175 53.0477 23.5902 52.9588C23.8311 52.5661 23.94 52.1064 23.9007 51.6473V50.9691H24.408V51.6473C24.408 53.0676 23.8625 53.7774 22.7715 53.7768C21.6804 53.7768 21.1348 53.067 21.1347 51.6473V47.1749C21.1347 45.7546 21.6803 45.0444 22.7715 45.0441Z" fill="#333333"/>
<path d="M26.5655 49.5728V54.5953H26.0724V44.1984H26.5655V49.5728ZM26.9042 44.1984H27.3986V48.7413H29.4014V44.1984H29.9095V49.2347H26.9042V44.1984ZM29.9095 54.5953H29.4014V50.0667H27.3986V54.5953H26.9042V49.5728H29.9095V54.5953ZM30.2339 44.1984H30.7423V54.5953H30.2339V44.1984H30.2339Z" fill="#333333"/>
<path d="M36.1866 45.0021C36.6162 45.6264 36.8247 46.3765 36.779 47.1329V51.6184C36.8306 52.3754 36.6216 53.1274 36.1866 53.7491C36.1024 53.8522 36.0106 53.949 35.912 54.0385C35.7924 54.1447 35.6594 54.2348 35.5164 54.3064C35.3477 54.391 35.1705 54.4573 34.9877 54.5042C34.7661 54.5586 34.5386 54.5848 34.3105 54.5823C33.8907 54.6033 33.4733 54.5079 33.1044 54.3064C32.8515 54.1595 32.6252 53.9711 32.4348 53.7491C31.9994 53.1275 31.7902 52.3755 31.842 51.6184V47.1329C31.7962 46.3764 32.0048 45.6263 32.4348 45.0021C32.6244 44.7814 32.851 44.5954 33.1044 44.4524C33.482 44.276 33.8937 44.1845 34.3104 44.1845C34.7271 44.1845 35.1388 44.276 35.5164 44.4524C35.77 44.5953 35.9969 44.7813 36.1866 45.0021ZM36.2857 47.1329C36.3306 46.4879 36.1566 45.8466 35.7917 45.3129C35.6006 45.1124 35.3708 44.9527 35.1162 44.8437C34.8616 44.7346 34.5875 44.6783 34.3105 44.6783C34.0335 44.6783 33.7594 44.7346 33.5048 44.8437C33.2502 44.9527 33.0204 45.1124 32.8293 45.3129C32.4644 45.8466 32.2902 46.4879 32.3351 47.1329V51.6184C32.2903 52.2636 32.4644 52.9051 32.8293 53.4392C33.0181 53.6437 33.2472 53.8068 33.5021 53.9184C33.757 54.03 34.0322 54.0876 34.3105 54.0876C34.5888 54.0876 34.864 54.03 35.1189 53.9184C35.3739 53.8068 35.6029 53.6437 35.7917 53.4392C36.1565 52.9051 36.3306 52.2636 36.2857 51.6184V47.1329ZM34.3105 45.0164C34.5387 44.9968 34.7682 45.0328 34.9795 45.1212C35.1907 45.2096 35.3775 45.3479 35.5237 45.5241C35.8445 45.9963 35.9939 46.564 35.947 47.1329V51.6184C35.947 53.0386 35.4015 53.7488 34.3105 53.7491C33.2195 53.7491 32.6739 53.0389 32.6738 51.6184V47.1329C32.6269 46.564 32.7764 45.9962 33.0973 45.5241C33.2435 45.3478 33.4302 45.2096 33.6415 45.1212C33.8528 45.0328 34.0823 44.9968 34.3105 45.0164ZM35.4538 47.1329C35.4654 46.8156 35.4247 46.4985 35.3335 46.1944C35.2773 46.01 35.1724 45.8441 35.0299 45.7144C34.9211 45.6223 34.7895 45.5614 34.649 45.538C34.5369 45.5214 34.4238 45.5122 34.3105 45.5107C34.1948 45.5117 34.0793 45.5208 33.9649 45.538C33.8269 45.5626 33.6979 45.6235 33.5911 45.7144C33.4484 45.8439 33.3435 46.0098 33.2877 46.1944C33.1964 46.4985 33.156 46.8156 33.1682 47.1329V51.6184C33.1556 51.9402 33.196 52.262 33.2877 52.5708C33.3433 52.7553 33.4482 52.9211 33.5911 53.0503C33.6975 53.1419 33.8266 53.2032 33.9649 53.2276C34.0793 53.2448 34.1948 53.2541 34.3105 53.2553C34.4238 53.2536 34.5369 53.2443 34.649 53.2276C34.7898 53.2044 34.9215 53.1431 35.0299 53.0503C35.1726 52.9209 35.2775 52.7551 35.3335 52.5708C35.4252 52.262 35.4658 51.9403 35.4538 51.6184V47.1329Z" fill="#333333"/>
<path d="M38.4726 44.1984V54.5953H37.9781V44.1984H38.4726ZM38.8105 44.1984H39.3049V54.5953H38.8105V44.1984Z" fill="#333333"/>
<path d="M44.8349 47.838V47.1749C44.8799 46.5275 44.7114 45.8831 44.3552 45.3406C44.1619 45.144 43.9313 44.9879 43.677 44.8813C43.4227 44.7748 43.1497 44.7199 42.874 44.7199C42.5983 44.7199 42.3253 44.7748 42.071 44.8813C41.8167 44.9879 41.5861 45.144 41.3928 45.3406C41.0323 45.8817 40.8589 46.5259 40.8989 47.1749V51.6473C40.886 52.0709 40.9484 52.4935 41.0831 52.8954C41.1789 53.1787 41.3376 53.4367 41.5473 53.65C41.7259 53.8229 41.9443 53.9491 42.1833 54.0175C42.4081 54.0816 42.6406 54.1147 42.8743 54.1157C43.1057 54.1149 43.3358 54.0818 43.558 54.0175C43.7943 53.9484 44.0099 53.8222 44.1858 53.65C44.3958 53.4366 44.5552 53.1787 44.652 52.8954C44.7856 52.4933 44.8475 52.0708 44.8349 51.6473V50.9691H45.3428V51.6473C45.3886 52.4054 45.1748 53.1565 44.7366 53.7768C44.5473 53.9974 44.3234 54.1856 44.0735 54.3341C43.7073 54.5359 43.2919 54.6311 42.8743 54.6091C42.6462 54.6125 42.4185 54.5865 42.197 54.5319C42.0138 54.4858 41.8363 54.4195 41.6678 54.3341C41.5247 54.2629 41.3918 54.1728 41.2727 54.0662C41.1736 53.9772 41.0818 53.8804 40.9982 53.7768C40.5628 53.1557 40.3534 52.4041 40.405 51.6473V47.1749C40.3564 46.418 40.5655 45.667 40.9982 45.0441C41.0822 44.9409 41.1739 44.8443 41.2727 44.7552C41.3919 44.6487 41.5248 44.5586 41.6678 44.4873C41.8365 44.4023 42.0139 44.3358 42.197 44.289C42.4187 44.2353 42.6462 44.2097 42.8743 44.2126C43.2918 44.1905 43.7072 44.2856 44.0735 44.4873C44.3233 44.6357 44.5472 44.8237 44.7366 45.0441C45.1749 45.6649 45.3887 46.4164 45.3428 47.1749V47.838H44.8349ZM42.8743 45.0441C43.9651 45.0441 44.5107 45.7544 44.5111 47.1749V47.838H44.0029V47.1749C44.0149 46.8577 43.9743 46.5407 43.8826 46.2367C43.8272 46.0538 43.7251 45.8884 43.5865 45.7567C43.481 45.6642 43.3516 45.6032 43.213 45.5808C43.1009 45.5635 42.9877 45.5539 42.8743 45.5522C42.7586 45.5533 42.6431 45.5628 42.5287 45.5808C42.3906 45.605 42.2616 45.6658 42.1549 45.7567C42.0121 45.8863 41.9073 46.0522 41.8515 46.2367C41.76 46.5407 41.7196 46.8577 41.7319 47.1749V51.6473C41.6907 52.1084 41.8049 52.5701 42.0563 52.9588C42.1218 53.0512 42.2088 53.1264 42.3097 53.178C42.4861 53.2599 42.6802 53.2963 42.8743 53.2838C43.066 53.2969 43.2578 53.2604 43.4314 53.178C43.5315 53.1221 43.6201 53.0477 43.6926 52.9588C43.9336 52.5661 44.0424 52.1064 44.0029 51.6473V50.9691H44.5111V51.6473C44.5111 53.0675 43.9655 53.7774 42.8743 53.7768C41.7833 53.7768 41.2378 53.067 41.2378 51.6473V47.1749C41.2378 45.7546 41.7833 45.0444 42.8743 45.0441Z" fill="#333333"/>
<path d="M46.6685 54.1158H50.4777V54.6092H46.1747V44.2126H50.4777V44.7199H46.6685V54.1158ZM50.4777 45.5523H47.5009V48.7413H50.4777V49.2486H47.0068V45.0441H50.4777V45.5523ZM50.4777 50.081H47.5009V53.2839H50.4777V53.7769H47.0068V49.5728H50.4777V50.081Z" fill="#333333"/>
</g>
<defs>
<clipPath id="clip0_7_51">
<rect width="71" height="71" fill="white"/>
</clipPath>
</defs>
</svg>
