<svg width="170" height="138" viewBox="0 0 170 138" fill="none" xmlns="http://www.w3.org/2000/svg">
<path d="M31.3155 0.523468C30.8969 1.19067 28.9525 8.83006 24.7665 26.4107C23.8078 30.4139 21.9308 38.6093 21.3097 41.4226C19.7298 48.7395 19.2707 50.73 17.8529 56.7681C14.4906 71.035 11.2633 83.9897 10.7502 85.2352C10.1021 86.8031 9.27838 87.7371 8.56272 87.7371C7.15839 87.7371 5.20044 84.39 4.49827 80.8094C4.39025 80.2645 4.01216 80.2534 3.40452 80.7872C2.4458 81.6323 1.24402 85.9246 0.163766 92.3297C-0.0522838 93.6529 -0.0522838 93.7641 0.150263 93.9421C0.60937 94.3201 0.771407 93.9309 1.25752 91.1732C1.79765 88.1597 2.28376 85.9468 2.75637 84.29C3.13446 82.9444 3.60707 81.7324 3.72859 81.7324C3.78261 81.7324 3.95815 82.2216 4.13369 82.8221C4.76834 85.0572 6.28069 87.5259 7.40145 88.1486C8.9273 88.9715 10.2911 88.2487 11.3039 86.0914C11.79 85.0572 12.6677 81.7991 14.6796 73.6704C17.3668 62.7506 20.1214 51.0414 21.4582 44.8698C21.9038 42.7904 22.2819 41.0334 22.3089 40.9778C22.3224 40.9111 22.3899 42.6458 22.4304 44.8142C22.687 57.4687 26.3328 77.0509 29.9652 85.313C30.8699 87.3813 31.5586 89.0715 31.491 89.0715C31.4505 89.0715 31.302 89.0159 31.14 88.9492C30.6403 88.7268 30.2488 88.9159 29.8437 89.5942C29.2495 90.595 28.3988 90.9397 27.062 90.7284C25.6712 90.5171 25.2931 90.0167 24.699 87.5815C24.2939 85.9357 24.0778 85.5131 23.6052 85.5131C23.0381 85.5131 22.8625 85.9357 22.1334 89.0715C21.9173 90.0278 21.5797 91.1843 21.4042 91.6625C21.1071 92.4186 21.0936 92.541 21.2692 92.6855C21.6608 93.0191 21.8498 92.8634 22.2414 91.8515C22.498 91.2177 23.1461 88.7713 23.4027 87.4258C23.4567 87.17 23.5377 86.9587 23.5782 86.9587C23.6322 86.9587 23.8078 87.5147 23.9698 88.1931C24.1453 88.9492 24.4154 89.7054 24.672 90.1279C25.05 90.7618 25.1851 90.873 25.8737 91.151C27.5616 91.8293 29.3846 91.5179 30.3163 90.3837C30.5458 90.0946 30.7619 89.7943 30.7889 89.7165C30.8294 89.6275 31.0454 89.6942 31.437 89.9166C31.8961 90.1724 32.0717 90.3503 32.2202 90.7395C32.3147 91.0175 33.3005 93.842 34.4212 97.0223C38.4182 108.454 40.3356 112.39 44.3055 117.316C47.2762 121.008 49.8148 122.998 51.7458 123.176C53.3661 123.332 54.6624 121.987 54.892 119.918C54.9865 119.018 54.6894 118.284 54.0818 117.983C53.3391 117.605 52.826 118.095 53.5282 118.506C53.9603 118.773 54.1223 119.34 53.9603 120.163C53.8117 121.008 53.1501 122.12 52.7045 122.32C51.1651 122.998 48.3835 121.052 45.0887 117.005C41.1593 112.168 39.1743 108.087 35.4205 97.2447C34.7183 95.2209 33.9351 92.9746 33.665 92.2407C33.4085 91.5068 33.1924 90.8841 33.1924 90.8396C33.1924 90.695 34.5292 91.151 34.9478 91.4512C35.812 92.0406 36.3252 92.1851 37.6485 92.1851C39.2959 92.1851 39.863 91.9182 40.6462 90.7729L40.9702 90.317L40.9162 93.1637C40.8622 96.3551 40.9162 96.6664 41.5239 96.6108C41.875 96.5775 41.9425 96.4774 42.5231 95.1319C43.8464 92.0628 45.7774 88.2931 46.0204 88.2931C46.2095 88.2931 46.385 88.5711 46.9521 89.761C47.9109 91.7292 48.532 92.3297 49.9228 92.6299C51.0031 92.8634 52.7315 92.5632 53.8117 91.9516C54.1223 91.7737 54.4194 91.6291 54.4599 91.6291C54.5139 91.6291 54.7975 91.807 55.108 92.0183C55.7832 92.4965 56.5259 92.7077 56.931 92.5298C57.0795 92.4631 57.2415 92.4075 57.2685 92.4075C57.2955 92.4075 57.3631 94.4425 57.4036 96.9333C57.5116 103.539 58.0247 107.386 59.3345 111.523C60.9684 116.705 63.8986 120.23 67.4094 121.23C68.3951 121.508 69.6374 121.486 70.4341 121.186C72.8106 120.274 75.6328 116.304 78.0364 110.477C78.455 109.432 78.8465 108.665 78.8871 108.754C79.0626 109.187 79.3056 115.148 79.2921 119.04C79.2921 123.799 79.1706 125.089 78.4144 128.803C77.3747 133.907 76.0514 136.665 74.512 136.943C74.1745 136.998 74.0124 136.965 73.7694 136.776C73.1347 136.287 73.0267 134.941 73.3103 130.938C73.5128 128.292 73.4183 127.602 72.8917 127.602C72.5541 127.602 72.5541 127.613 72.5271 128.603C72.5136 129.148 72.4326 130.76 72.338 132.161C72.23 134.096 72.23 134.93 72.338 135.553C72.6351 137.132 73.2698 137.743 74.4715 137.632C76.6725 137.432 78.0499 134.908 79.2921 128.77C80.0618 124.989 80.1158 124.322 80.1158 118.595C80.1158 114.747 80.0483 112.457 79.8593 109.91L79.6027 106.452L80.4264 103.85C81.5742 100.258 83.2351 93.9532 83.7212 91.3622C83.7482 91.1954 84.0588 91.0731 85.0445 90.8285C88.9874 89.8277 92.3092 88.5267 94.9558 86.9254C95.847 86.3805 95.8875 86.3694 96.063 86.5695C96.1711 86.6919 96.2926 86.9699 96.3331 87.1923C96.4681 87.8483 96.5492 87.9039 97.1433 87.6371C98.1155 87.2145 98.4666 86.8698 98.8987 85.9357L99.2093 85.2352L99.2228 85.68C99.2363 86.3916 99.6009 87.6259 99.979 88.282C100.479 89.116 101.356 89.8499 101.869 89.8499C102.369 89.8388 102.666 89.6386 103.53 88.649C104.34 87.7371 104.665 87.537 104.989 87.7594C105.11 87.8372 105.718 88.4711 106.325 89.1494C107.878 90.8841 108.824 91.4067 110.106 91.2399C110.795 91.1621 111.47 90.7284 111.929 90.0946C112.321 89.5497 112.739 89.1827 112.942 89.1827C113.036 89.1827 113.685 90.1168 114.4 91.2622C116.345 94.398 117.412 95.4099 118.762 95.4099C120.909 95.4099 122.354 93.6418 124.271 88.7046C125.851 84.5902 127.62 79.1525 132.913 62.1613C136.518 50.5743 137.234 48.1613 138.166 44.425C138.652 42.5235 139.044 41.0556 139.044 41.1446C139.057 41.2336 138.908 42.39 138.733 43.7022C138.179 47.7054 138.071 49.8182 138.152 54.3773C138.193 56.668 138.301 59.2923 138.368 60.2153C139.557 74.4377 141.879 84.7348 145.89 93.6085C148.388 99.124 150.886 103.194 153.667 106.241C155.976 108.776 157.921 110.344 159.838 111.178C161.162 111.767 162.188 111.979 163.633 111.979C165.091 111.979 166.077 111.778 167.616 111.156C169.088 110.555 169.763 110.11 169.642 109.844C169.507 109.554 169.088 109.599 168.413 109.988C166.982 110.8 165.118 111.311 163.633 111.311C160.703 111.3 158.123 109.799 154.491 105.974C150.926 102.204 146.74 94.4869 144.134 86.8364C141.731 79.8086 139.908 69.5894 139.179 58.9921C138.922 55.4448 138.963 49.0842 139.233 46.5934C139.678 42.6347 140.488 37.5862 141.771 30.7252C141.933 29.8579 142.028 29.0684 141.987 28.9794C141.933 28.8793 141.744 28.8015 141.569 28.8015C141.137 28.8015 141.218 28.568 139.8 34.3058C139.152 36.8745 138.301 40.3217 137.896 41.9786C136.532 47.5052 136.208 48.6172 133.777 56.4901C123.974 88.0819 122.475 92.263 120.274 94.0977C119.248 94.954 118.492 94.9206 117.439 93.9977C116.777 93.4305 116.48 93.0191 115.089 90.7618C114.414 89.6609 113.766 88.7491 113.563 88.6156C112.982 88.2487 112.172 88.5155 111.538 89.3162C111.335 89.5719 110.984 89.9389 110.754 90.139C110.39 90.4615 110.228 90.5171 109.728 90.5171C108.864 90.5171 108.243 90.0946 107.001 88.6935C105.758 87.3035 105.313 86.9587 104.705 86.9587C104.138 86.9587 103.692 87.2479 102.95 88.1152C102.612 88.4933 102.234 88.8936 102.085 88.9937C101.829 89.1827 101.802 89.1827 101.451 88.8269C100.492 87.8928 100.033 86.4361 100.033 84.3233C100.033 83.8118 99.9655 83.3114 99.8844 83.2002C99.7764 83.0445 99.8574 82.8555 100.29 82.2328C102.909 78.5521 104.678 70.1232 104.232 63.529C103.949 59.6037 103.395 57.0795 102.112 53.9325C100.722 50.5187 99.1553 48.2058 97.1568 46.6267C96.2386 45.9039 95.7525 45.6148 94.7397 45.2145C94.0511 44.9365 93.2544 44.6807 92.9843 44.6363C92.5387 44.5807 92.4712 44.5251 92.4712 44.2471C92.4712 43.8579 93.3759 36.8523 94.0916 31.7483C95.4824 21.807 95.7255 19.6942 95.7525 17.2923C95.766 14.8237 95.4014 13.734 94.4157 13.2336C93.4569 12.7443 91.5935 13.0668 89.7976 14.0453C83.4376 17.537 79.2111 29.4687 77.4827 48.7618C77.4152 49.618 77.3477 50.3964 77.3477 50.4853C77.3477 50.5854 76.7401 51.2081 75.9839 51.8753C71.6764 55.734 67.7605 60.4822 65.0463 65.1081C61.1034 71.8356 58.5648 79.9865 57.6871 88.6379C57.3766 91.8293 56.958 92.3742 55.5671 91.4178C54.6219 90.7729 54.5139 90.7618 53.4606 91.2844C52.3534 91.8404 51.8808 91.9627 50.841 91.9627C49.3827 91.9627 48.6535 91.4512 47.9784 89.9278C47.2762 88.3599 46.8441 87.7371 46.331 87.537L45.8584 87.3479L45.4128 87.7705C44.9132 88.2487 43.7789 90.3281 42.6446 92.819C42.226 93.753 41.8344 94.5537 41.7669 94.6093C41.6454 94.6982 41.7804 91.3622 41.983 89.1827C42.091 88.0263 42.253 87.3257 42.6581 86.1247C43.6844 83.1446 45.1022 77.4067 48.3024 63.2733C49.6258 57.4242 49.7473 56.3678 49.0856 56.0231C48.8021 55.8674 48.2214 55.9341 48.0054 56.1343C47.0061 57.0461 45.3318 62.7173 43.7384 70.668C42.6986 75.8499 41.902 81.0541 41.3078 86.6251C41.1323 88.2931 40.133 90.4615 39.2283 91.1621C38.7557 91.529 37.0273 91.6069 36.3117 91.2955C35.407 90.8952 35.407 90.8952 35.6905 90.6283C36.0821 90.2725 36.1361 88.9381 35.785 88.4043C35.4205 87.8595 34.9343 87.6815 34.4347 87.8928C33.8406 88.1486 33.5435 88.7491 33.638 89.5386L33.7056 90.1946L33.287 89.9722C33.0439 89.8499 32.8144 89.6831 32.7603 89.6053C32.4093 89.0938 29.9112 83 29.3575 81.2876C25.8332 70.4679 22.5655 48.4615 23.3216 40.811C23.7808 36.3074 25.6172 27.9786 30.4243 8.72998C31.7881 3.25897 32.3012 0.812592 32.1662 0.51236C32.0582 0.278839 31.4775 0.289948 31.3155 0.523468ZM94.1186 13.9564C94.6992 14.4345 94.8343 15.0795 94.8343 17.4035C94.8208 19.9055 94.7937 20.2502 93.4164 30.3027C92.8223 34.5838 92.1876 39.3098 91.9986 40.811C91.8096 42.3122 91.634 43.7355 91.5935 43.9913L91.5125 44.4472L90.3377 44.5139C86.9889 44.703 83.6267 46.1152 79.5487 49.0398C78.4144 49.8515 78.2929 49.9182 78.2929 49.6625C78.2929 49.5179 78.3874 48.4504 78.4955 47.2939C80.3184 28.5568 84.7204 16.981 91.0534 14.2677C92.5657 13.6228 93.592 13.5116 94.1186 13.9564ZM91.391 45.448C91.391 45.9039 90.3647 54.1438 89.9731 56.9349C89.2305 62.1057 88.6228 65.197 86.9349 72.5028C85.6251 78.1629 85.1255 80.4091 84.1668 85.124C83.2486 89.6386 83.073 90.4059 82.9245 90.5171C82.7895 90.6283 79.9268 91.151 78.9411 91.251L78.2119 91.3178L78.0499 89.5163C77.6448 85.1684 77.5637 81.8992 77.5502 71.5576C77.5502 61.305 77.6178 58.7363 78.0364 52.9873L78.1714 51.0969L79.1436 50.3186C83.046 47.1938 87.4615 45.2367 90.8238 45.1589C91.364 45.1478 91.391 45.17 91.391 45.448ZM93.781 45.6148C95.3609 46.093 97.1568 47.4051 98.4531 49.0175C100.317 51.3193 102.234 55.8563 102.855 59.4703C104.003 66.0088 103.328 73.0811 101.019 79.008C100.141 81.2542 99.1012 82.7109 97.2108 84.3233C96.1441 85.2352 96.0495 85.2908 95.6309 85.224C95.0773 85.1462 94.9153 85.2129 93.2274 86.3471C91.8366 87.2701 91.0264 87.7371 90.7968 87.7371C90.6213 87.7371 90.7698 87.0032 91.1884 85.9135C91.5125 85.0572 91.5395 84.9127 91.364 84.7792C91.0129 84.4901 90.7293 84.7236 90.3917 85.6132C89.8786 86.9587 89.7031 87.815 89.8921 88.1375C89.9731 88.2931 90.0406 88.4266 90.0406 88.4488C90.0406 88.6379 84.1938 90.417 84.0452 90.2836C83.9372 90.1835 86.2193 79.4417 87.7316 72.892C89.9326 63.3845 90.6078 59.4925 91.7285 50.0962C92.3362 44.9143 92.2687 45.2479 92.7143 45.3257C92.9168 45.3702 93.4029 45.4925 93.781 45.6148ZM77.0911 54.2328C76.7266 59.6259 76.6185 63.429 76.6185 71.2796C76.6185 79.753 76.7941 85.3686 77.1587 89.2272C77.2667 90.3837 77.3207 91.3511 77.2802 91.3956C77.0911 91.5402 74.6876 91.4401 73.9044 91.251C73.1887 91.0731 72.9592 90.9397 71.7304 89.9055C70.2045 88.649 69.5159 88.3154 68.6517 88.4488C67.882 88.5711 67.4634 89.116 66.6802 90.9953C66.3021 91.9071 65.87 92.8078 65.7215 92.9746C65.3164 93.4528 64.7358 93.4083 63.2099 92.7967C61.8056 92.2296 60.5903 91.3734 59.5641 90.228C59.213 89.8388 58.8214 89.4941 58.6864 89.4496C58.4703 89.394 58.4433 89.305 58.4973 88.927C58.5378 88.6712 58.6053 88.1041 58.6459 87.6815C59.0509 83.6895 60.3067 78.263 61.7516 74.2264C64.7223 65.9643 69.0163 59.5259 75.8488 53.1208C76.5375 52.4647 77.1451 51.9532 77.1722 51.9754C77.2127 51.9977 77.1722 53.0207 77.0911 54.2328ZM48.5455 57.6466C48.4915 58.1581 48.2079 59.6927 47.9109 61.0604C46.9251 65.5306 43.8734 78.6299 43.3198 80.7316C43.0227 81.8547 42.7797 82.8332 42.7797 82.8888C42.7797 82.9444 42.7392 82.9667 42.6986 82.9333C42.5906 82.8332 43.1172 79.008 43.7384 75.4496C45.1022 67.5878 46.8306 60.4488 48.0594 57.6799C48.2889 57.1462 48.505 56.7125 48.5455 56.7125C48.586 56.7125 48.586 57.1351 48.5455 57.6466ZM98.3451 84.8682C98.183 85.6577 97.5214 86.7363 97.1973 86.7363C97.1433 86.7363 97.0083 86.5362 96.8867 86.2804L96.6707 85.8356L97.5079 85.1351C97.967 84.7459 98.3721 84.4234 98.3856 84.4123C98.4126 84.4123 98.3991 84.6124 98.3451 84.8682ZM35.0694 88.8603C35.2719 89.3384 35.2584 89.8722 35.0424 90.1168C34.8668 90.3058 34.8398 90.2947 34.6373 89.9278C34.3672 89.4718 34.3537 89.1827 34.5698 88.7935C34.7723 88.4266 34.8938 88.4377 35.0694 88.8603ZM69.8129 89.4385C70.083 89.5719 70.7042 90.0501 71.2038 90.4949C71.7034 90.9397 72.365 91.429 72.6756 91.5735C73.4858 91.9627 74.9036 92.2074 76.2539 92.174L77.4152 92.1518L77.7123 95.3654C77.8743 97.1335 78.1714 100.336 78.3604 102.482L78.698 106.396L78.1714 107.82C76.9156 111.156 75.8759 113.424 74.512 115.704C72.5676 118.984 70.6501 120.752 69.0163 120.763C68.3816 120.763 67.0313 120.385 66.2751 119.985C65.3029 119.473 63.6015 117.939 62.8588 116.882C60.1447 113.102 58.7269 107.642 58.2813 99.1907C58.1192 96.0771 58.2408 90.6394 58.4838 90.4393C58.5513 90.3948 58.7269 90.506 58.8889 90.6839C59.456 91.34 60.8199 92.4409 61.6165 92.8857C62.5618 93.4194 64.4117 94.0755 64.9923 94.0755C65.573 94.0755 66.2076 93.7197 66.5992 93.1637C66.7747 92.8968 67.1798 92.0628 67.4769 91.2955C68.3411 89.1049 68.6652 88.8491 69.8129 89.4385ZM82.3979 93.3193C81.4662 97.2892 79.5622 104.172 79.4272 104.05C79.3597 103.994 78.2794 92.1518 78.3469 92.1073C78.3604 92.085 78.9276 91.9961 79.5892 91.9071C80.2509 91.807 81.1286 91.6625 81.5337 91.5846C82.9785 91.2844 82.911 91.1287 82.3979 93.3193Z" fill="black"/>
</svg>
